<svg width="45" height="50" viewBox="0 0 45 50" fill="none" xmlns="http://www.w3.org/2000/svg">
<path fill-rule="evenodd" clip-rule="evenodd" d="M16.4257 0C6.12314 0 4.69307e-05 7.66171 0 15.7521V17.3643C0 19.2971 0.535526 21.9163 1.12232 24.294C1.67669 26.5404 2.3359 28.7954 2.81624 30.4384L2.93737 30.8531C3.95346 34.3349 7.15123 42.7983 8.38259 45.8258C9.70301 49.0725 13.3369 50.5921 16.605 49.7882C20.5345 48.8214 22.9707 44.7617 21.4194 40.8946C20.5627 38.7588 18.7908 34.0467 17.5669 30.5278C17.8799 30.5405 18.1948 30.5469 18.5116 30.5469C23.134 30.5469 27.4197 29.1985 30.7119 26.8987C32.6452 28.358 35.37 28.7344 37.7771 27.3793L40.699 25.7343C43.099 24.3832 44.5841 21.8431 44.5841 19.0888V11.6721C44.5841 8.91796 43.099 6.37774 40.699 5.0266L37.7771 3.38157C35.0873 1.86732 32.0004 2.5153 30.0647 4.4204C26.268 1.74099 21.323 0 16.4257 0ZM32.8515 17.695V17.6847V8.99821C32.8562 7.65568 34.3035 6.81175 35.4747 7.47113L38.3968 9.11617C39.3199 9.63583 39.8911 10.6128 39.8911 11.6721V19.0888C39.8911 20.1481 39.3199 21.125 38.3968 21.6448L35.4747 23.2897C34.3016 23.9503 32.8515 23.1025 32.8515 21.7563V17.695ZM28.1584 8.99229V8.85378C25.0317 6.36575 20.6439 4.69307 16.4257 4.69307C8.87302 4.69307 4.69309 10.0928 4.69307 15.7521V17.3644C4.69307 18.6633 5.08895 20.7799 5.67871 23.1696C6.20787 25.3141 6.8401 27.4771 7.32313 29.1295L7.4425 29.5381C8.38748 32.7763 11.5082 41.0539 12.7299 44.058C13.0634 44.8781 14.1851 45.5506 15.4838 45.231C16.9434 44.872 17.4408 43.5818 17.0638 42.6418C15.8822 39.6967 12.9202 31.7631 12.0037 28.6225C11.473 26.8037 13.077 25.1341 14.8753 25.4962C16.0312 25.7287 17.2498 25.8538 18.5116 25.8538C22.113 25.8538 25.3386 24.837 27.7579 23.2327L27.7691 23.1625C27.8534 22.6231 27.9273 21.8863 27.9876 21.091C28.1073 19.5133 28.1575 17.9372 28.1584 17.6914V9.00471V8.99229Z" fill="black"/>
</svg>
