<svg width="25" height="26" viewBox="0 0 25 26" fill="none" xmlns="http://www.w3.org/2000/svg">
<path d="M18.939 5.2H24.939V7.8H22.539V24.7C22.539 25.0448 22.4125 25.3754 22.1875 25.6192C21.9625 25.863 21.6572 26 21.339 26H4.53896C4.22071 26 3.91548 25.863 3.69044 25.6192C3.46539 25.3754 3.33896 25.0448 3.33896 24.7V7.8H0.938965V5.2H6.93897V1.3C6.93897 0.955219 7.06539 0.624558 7.29044 0.380761C7.51548 0.136964 7.82071 0 8.13897 0H17.739C18.0572 0 18.3625 0.136964 18.5875 0.380761C18.8125 0.624558 18.939 0.955219 18.939 1.3V5.2ZM20.139 7.8H5.73897V23.4H20.139V7.8ZM14.6358 15.6L16.7574 17.8984L15.0606 19.7366L12.939 17.4382L10.8174 19.7366L9.12056 17.8984L11.2422 15.6L9.12056 13.3016L10.8174 11.4634L12.939 13.7618L15.0606 11.4634L16.7574 13.3016L14.6358 15.6ZM9.33897 2.6V5.2H16.539V2.6H9.33897Z" fill="#DF6464"/>
</svg>
