<svg width="396" height="315" viewBox="0 0 396 315" fill="none" xmlns="http://www.w3.org/2000/svg">
<g clip-path="url(#clip0_100_1059)">
<path d="M29.2111 290.191C37.9311 306.421 56.4381 313.388 56.4381 313.388C56.4381 313.388 60.8071 294.041 52.0871 277.811C43.3671 261.581 24.8602 254.614 24.8602 254.614C24.8602 254.614 20.4911 273.961 29.2111 290.191Z" fill="#FDC500"/>
<path d="M35.2047 284.85C50.9479 294.356 57.0111 313.237 57.0111 313.237C57.0111 313.237 37.5496 316.706 21.8064 307.201C6.0632 297.695 0 278.814 0 278.814C0 278.814 19.4616 275.345 35.2047 284.85Z" fill="#FFAA29"/>
<path d="M254.028 282.759H87.8945V281.56H252.832V223.383H101.861L94.5269 208.049L95.6046 207.53L102.613 222.184H254.028V282.759Z" fill="#2F2E41"/>
<path d="M110.006 312.147C116.937 312.147 122.555 306.508 122.555 299.552C122.555 292.596 116.937 286.957 110.006 286.957C103.075 286.957 97.4561 292.596 97.4561 299.552C97.4561 306.508 103.075 312.147 110.006 312.147Z" fill="#101010"/>
<path d="M233.709 312.147C240.64 312.147 246.259 306.508 246.259 299.552C246.259 292.596 240.64 286.957 233.709 286.957C226.778 286.957 221.16 292.596 221.16 299.552C221.16 306.508 226.778 312.147 233.709 312.147Z" fill="#101010"/>
<path d="M379.524 39.8583C383.815 39.8583 387.293 36.3675 387.293 32.0615C387.293 27.7554 383.815 24.2646 379.524 24.2646C375.234 24.2646 371.755 27.7554 371.755 32.0615C371.755 36.3675 375.234 39.8583 379.524 39.8583Z" fill="#FDC500"/>
<path d="M271.796 203.592H85.0617L44.6567 71.0459H313.407L313.163 71.8257L271.796 203.592ZM85.9459 202.392H270.92L311.778 72.2454H46.2721L85.9459 202.392Z" fill="#2F2E41"/>
<path d="M257.22 196.695H93.2045L57.7153 79.1426H293.768L293.554 79.8347L257.22 196.695Z" fill="#F2F2F2"/>
<path d="M316.756 59.2041L315.6 58.8964L323.487 29.0625H369.365V30.2623H324.407L316.756 59.2041Z" fill="#2F2E41"/>
<path d="M299.978 111.229H57.7139V112.429H299.978V111.229Z" fill="#2F2E41"/>
<path d="M286.104 155.422H71.1855V156.621H286.104V155.422Z" fill="#2F2E41"/>
<path d="M179.626 71.6455H178.431V202.992H179.626V71.6455Z" fill="#2F2E41"/>
<path d="M233.138 71.6083L224.558 202.951L225.751 203.03L234.331 71.6868L233.138 71.6083Z" fill="#2F2E41"/>
<path d="M124.944 71.6065L123.751 71.6846L132.281 203.031L133.474 202.953L124.944 71.6065Z" fill="#2F2E41"/>
<path d="M389.763 312.48H0V315H389.763V312.48Z" fill="#090909"/>
</g>
<defs>
<clipPath id="clip0_100_1059">
<rect width="396" height="315" fill="white"/>
</clipPath>
</defs>
</svg>
