<svg width="76" height="50" viewBox="0 0 76 50" fill="none" xmlns="http://www.w3.org/2000/svg">
<path d="M74.6534 43.5297H71.1764V4.54279C71.1764 1.88506 68.9755 0 66.3184 0H8.90437C6.24544 0 4.11758 1.88446 4.11758 4.54279V43.5291H0.568148C0.243407 43.5291 0 43.4986 0 43.8233V44.3712C0 47.3201 2.37785 50 5.32564 50H69.8941C72.8437 50 75.2927 47.3201 75.2927 44.3712V43.8233C75.2933 43.4992 74.9782 43.5297 74.6534 43.5297ZM36.7813 1.80791C37.2167 1.36655 38.0043 1.36655 38.4397 1.80791C38.6628 2.025 38.7866 2.3312 38.7866 2.6374C38.7866 2.94899 38.6628 3.24921 38.4397 3.47228C38.2214 3.68997 37.9218 3.81317 37.6108 3.81317C37.2998 3.81317 36.999 3.68997 36.7813 3.47228C36.557 3.24861 36.4338 2.94839 36.4338 2.6374C36.4344 2.32522 36.5576 2.025 36.7813 1.80791ZM67.6461 41.1764H7.64667V5.29454H67.6461V41.1764Z" fill="black"/>
</svg>
