<svg width="56" height="50" viewBox="0 0 56 50" fill="none" xmlns="http://www.w3.org/2000/svg">
<path d="M53.7952 0H1.96468C0.8813 0 0 0.8813 0 1.96468V35.0836C0 35.0836 0.00112267 35.0853 0.00112267 35.0864V40.1412C0.00112267 40.7817 0.519798 41.2993 1.15916 41.2993H21.6839C21.5806 43.5761 21.0765 48.1465 18.7127 49.1484C18.7127 49.1484 17.795 50 20.3625 50H24.7578H30.8157H35.211C37.7769 50 36.8602 49.1484 36.8602 49.1484C34.4964 48.1465 33.9929 43.5755 33.8891 41.2993H54.6237C55.2642 41.2993 55.7543 40.7812 55.7543 40.1412V35.1386C55.7554 35.1201 55.7599 35.1032 55.7599 35.0836V1.96468C55.7599 0.882422 54.8786 0 53.7952 0ZM26.5232 37.3289C26.5232 36.5801 27.1306 35.9722 27.8805 35.9722C28.6293 35.9722 29.2367 36.5795 29.2367 37.3289C29.2367 38.0783 28.6293 38.6857 27.8805 38.6857C27.1306 38.6857 26.5232 38.0783 26.5232 37.3289ZM54.0759 33.7717H1.68401V1.96468C1.68401 1.80975 1.81031 1.68401 1.96468 1.68401H53.7952C53.9496 1.68401 54.0759 1.80975 54.0759 1.96468V33.7717Z" fill="black"/>
</svg>
