<svg width="61" height="50" viewBox="0 0 61 50" fill="none" xmlns="http://www.w3.org/2000/svg">
<path d="M58.924 0H2.02354C0.907759 0 0 0.907759 0 2.02354V38.7538C0 39.8696 0.907759 40.7773 2.02354 40.7773H23.8765L22.8818 47.5716H22.0762C21.4058 47.5716 20.8621 48.1153 20.8621 48.7857C20.8621 49.4561 21.4058 49.9998 22.0762 49.9998H23.93C23.9308 49.9998 23.9318 50 23.9326 50C23.9334 50 23.934 49.9998 23.9348 49.9998H37.0131C37.0139 49.9998 37.0145 50 37.0154 50C37.0162 50 37.017 49.9998 37.0176 49.9998H38.8716C39.542 49.9998 40.0857 49.4561 40.0857 48.7857C40.0857 48.1153 39.542 47.5716 38.8716 47.5716H38.0403L36.8757 40.7773H58.924C60.0398 40.7773 60.9475 39.8696 60.9475 38.7538V2.02354C60.9475 0.907759 60.04 0 58.924 0ZM58.5193 2.42824V29.313H2.42825V2.42824H58.5193ZM34.419 40.8176L35.5766 47.5716H25.3357L26.3289 40.7885C26.3295 40.7848 26.3295 40.7812 26.3299 40.7775H34.4141C34.4161 40.7907 34.4167 40.804 34.419 40.8176ZM2.42825 38.3491V31.7412H58.5193V38.3491H2.42825Z" fill="black"/>
</svg>
