<svg width="28" height="50" viewBox="0 0 28 50" fill="none" xmlns="http://www.w3.org/2000/svg">
<path id="Vector" d="M4.94792 0H22.2C24.9354 0 27.1479 2.21458 27.1479 4.94792V45.0521C27.1479 47.7875 24.9333 50 22.2 50H4.94792C2.2125 50 0 47.7854 0 45.0521V4.94792C0 2.2125 2.21458 0 4.94792 0ZM3.18958 40.1687H23.9583V9.375H3.18958V40.1687ZM13.5417 47.0062C15.1042 47.0062 16.2771 45.8333 16.2771 44.3375C16.2771 42.775 15.1042 41.6021 13.5417 41.6021C12.0438 41.6021 10.8729 42.775 10.8729 44.3375C10.8729 45.8354 12.0458 47.0062 13.5417 47.0062Z" fill="black"/>
</svg>
