<svg width="38" height="50" viewBox="0 0 38 50" fill="none" xmlns="http://www.w3.org/2000/svg">
<path d="M34.9398 0H3.01204C1.35139 0 0 1.35139 0 3.01204V46.9885C0 48.6491 1.35139 50.0005 3.01204 50.0005H34.9398C36.6004 50.0005 37.9518 48.6491 37.9518 46.9885V3.01204C37.9518 1.35088 36.6004 0 34.9398 0ZM18.9759 1.73194C19.2252 1.73194 19.4277 1.93452 19.4277 2.18377C19.4277 2.43302 19.2252 2.63509 18.9759 2.63509C18.7267 2.63509 18.5241 2.43251 18.5241 2.18326C18.5241 1.934 18.7267 1.73194 18.9759 1.73194ZM18.9759 48.3429C18.4769 48.3429 18.0723 47.9388 18.0723 47.4393C18.0723 46.9398 18.4769 46.5351 18.9759 46.5351C19.4749 46.5351 19.8796 46.9398 19.8796 47.4393C19.8796 47.9388 19.4749 48.3429 18.9759 48.3429ZM35.5424 45.5566H2.40943V4.44242H35.5424V45.5566Z" fill="black"/>
</svg>
