<svg width="42" height="42" viewBox="0 0 42 42" fill="none" xmlns="http://www.w3.org/2000/svg">
<g id="SVGRepo_iconCarrier">
<path id="Vector" fill-rule="evenodd" clip-rule="evenodd" d="M21 0C22.4498 0 23.625 1.17526 23.625 2.625V18.375H39.375C40.8248 18.375 42 19.5502 42 21C42 22.4498 40.8248 23.625 39.375 23.625H23.625V39.375C23.625 40.8248 22.4498 42 21 42C19.5502 42 18.375 40.8248 18.375 39.375V23.625H2.625C1.17526 23.625 0 22.4498 0 21C0 19.5502 1.17526 18.375 2.625 18.375H18.375V2.625C18.375 1.17526 19.5502 0 21 0Z" fill="white"/>
</g>
</svg>
