<svg width="50" height="50" viewBox="0 0 50 50" fill="none" xmlns="http://www.w3.org/2000/svg">
<g id="Group">
<path id="Vector" d="M25 0C11.1914 0 0 11.1914 0 25C0 38.8086 11.1914 50 25 50C38.8086 50 50 38.8086 50 25C50 11.1914 38.8086 0 25 0ZM40.6055 40.5957C38.5742 42.627 36.2207 44.2188 33.5938 45.3223C30.8789 46.4746 27.9883 47.0508 25 47.0508C22.0215 47.0508 19.1309 46.4648 16.4062 45.3223C13.7793 44.209 11.416 42.6172 9.39453 40.5957C7.36328 38.5645 5.77148 36.2109 4.66797 33.584C3.51562 30.8691 2.92969 27.9785 2.92969 25C2.92969 22.0215 3.51562 19.1309 4.6582 16.4062C5.77148 13.7793 7.36328 11.416 9.38477 9.39453C11.4258 7.36328 13.7793 5.77148 16.4062 4.6582C19.1309 3.51562 22.0215 2.92969 25 2.92969C27.9785 2.92969 30.8691 3.51562 33.5938 4.6582C36.2207 5.77148 38.584 7.36328 40.6055 9.38477C42.6367 11.416 44.2285 13.7695 45.332 16.3965C46.4844 19.1113 47.0605 22.002 47.0605 24.9902C47.0605 27.9688 46.4746 30.8594 45.332 33.584C44.2188 36.2109 42.627 38.5742 40.6055 40.5957Z" fill="black"/>
<path id="Vector_2" d="M35.0195 20.2051C33.7304 18.5938 31.9238 17.666 30.2148 17.666C27.9589 17.666 27.0019 18.7402 25.4394 18.7402C23.8183 18.7402 22.5976 17.666 20.6445 17.666C18.7207 17.666 16.6796 18.8281 15.3906 20.8203C13.5644 23.623 13.8769 28.8867 16.8261 33.3789C17.8808 34.9805 19.2871 36.7871 21.1328 36.8066C22.7734 36.8262 23.2421 35.7617 25.4589 35.752C27.6757 35.7422 28.0957 36.8262 29.7363 36.8066C31.582 36.7871 33.0664 34.7852 34.121 33.1836C34.873 32.041 35.1562 31.4551 35.7421 30.1562C31.4746 28.5449 30.791 22.5195 35.0195 20.2051Z" fill="black"/>
<path id="Vector_3" d="M28.4961 15.8789C29.3165 14.8242 29.9415 13.3398 29.7168 11.8164C28.379 11.9043 26.8067 12.7637 25.8985 13.877C25.0684 14.8828 24.3848 16.377 24.6485 17.832C26.1036 17.8809 27.6172 17.002 28.4961 15.8789Z" fill="black"/>
</g>
</svg>
