<svg width="44" height="80" viewBox="0 0 44 80" fill="none" xmlns="http://www.w3.org/2000/svg">
<g id="Apple-Icons">
<g id="128px">
<path id="Apple-Watch" fill-rule="evenodd" clip-rule="evenodd" d="M41.25 56.25C41.25 60.3856 37.8856 63.75 33.75 63.75H8.75C4.61438 63.75 1.25 60.3856 1.25 56.25V23.75C1.25 19.6144 4.61438 16.25 8.75 16.25H33.75C37.8856 16.25 41.25 19.6144 41.25 23.75V56.25ZM33.75 70V74.6263C33.75 77.0981 32.9637 77.3231 28.7706 78.0531C28.6825 78.0631 28.57 78.0825 28.3769 78.1156C27.4588 78.2725 24.6644 78.75 21.25 78.75C19.6106 78.75 17.0169 78.6363 13.97 78.0938C13.8837 78.0781 13.8206 78.0669 13.7681 78.0594C9.44562 77.2125 8.75 76.9044 8.75 74.6263V70C8.75 68.4413 8.615 66.6669 7.86312 65.1769H34.67C33.8781 66.7287 33.75 68.5512 33.75 70ZM8.75 10V5.37375C8.75 3.09563 9.44562 2.7875 13.7681 1.94062C13.8206 1.93312 13.8837 1.92188 13.97 1.90625C17.0169 1.36375 19.6106 1.25 21.25 1.25C24.6644 1.25 27.4588 1.7275 28.3769 1.88437C28.57 1.9175 28.6825 1.93688 28.7706 1.94688C32.96 2.67563 33.75 2.89563 33.75 5.37375V10C33.75 11.4488 33.8781 13.2712 34.67 14.8231H7.86312C8.615 13.3331 8.75 11.5588 8.75 10ZM43.3081 33.75C43.5519 33.75 43.75 33.5519 43.75 33.3081V26.6919C43.75 26.4481 43.5519 26.25 43.3081 26.25H42.5V23.75C42.5 20.0081 40.115 16.8044 36.7937 15.56C35.4825 14.4019 35 12.5044 35 10V5.37375C35 1.7525 32.9956 1.41313 28.9331 0.706253C28.7569 0.706253 25.4894 0 21.25 0C17.0106 0 13.655 0.706253 13.5669 0.706253C9.50438 1.50125 7.5 1.92938 7.5 5.37375V10C7.5 12.4944 7.08437 14.385 5.74875 15.5444C2.40562 16.7775 0 19.9919 0 23.75V56.25C0 60.0081 2.40562 63.2225 5.74875 64.4556C7.08437 65.615 7.5 67.5056 7.5 70V74.6263C7.5 78.0706 9.50438 78.4987 13.5669 79.2937C13.655 79.2937 17.0106 80 21.25 80C25.4894 80 28.7569 79.2937 28.9331 79.2937C32.9956 78.5869 35 78.2475 35 74.6263V70C35 67.4956 35.4825 65.5981 36.7937 64.44C40.115 63.1956 42.5 59.9919 42.5 56.25V51.25H43.125C43.47 51.25 43.75 50.97 43.75 50.625V41.875C43.75 41.53 43.47 41.25 43.125 41.25H42.5V33.75H43.3081ZM39.375 56.25C39.375 59.3519 36.8519 61.875 33.75 61.875H8.75C5.64813 61.875 3.125 59.3519 3.125 56.25V23.75C3.125 20.6481 5.64813 18.125 8.75 18.125H33.75C36.8519 18.125 39.375 20.6481 39.375 23.75V56.25ZM33.75 17.5H8.75C5.29813 17.5 2.5 20.2981 2.5 23.75V56.25C2.5 59.7019 5.29813 62.5 8.75 62.5H33.75C37.2019 62.5 40 59.7019 40 56.25V23.75C40 20.2981 37.2019 17.5 33.75 17.5Z" fill="black"/>
</g>
</g>
</svg>
