<svg width="38" height="50" viewBox="0 0 38 50" fill="none" xmlns="http://www.w3.org/2000/svg">
<path id="Vector" fill-rule="evenodd" clip-rule="evenodd" d="M29.9789 7.58336C29.9784 7.70355 29.9749 7.82307 29.9687 7.94183C32.8887 8.96628 34.9827 11.7473 34.9827 15.0174V17.516H37.4814V27.5111H34.9827V35.0074C34.9827 38.2758 32.8912 41.0554 29.9734 42.0814C29.9811 42.2211 29.9851 42.362 29.9851 42.5037C29.9851 46.6439 26.6291 50 22.4889 50H12.4938C8.35374 50 4.99752 46.6439 4.99752 42.5037C4.99752 42.362 5.00147 42.2211 5.00922 42.0814C2.09159 41.0554 0 38.2758 0 35.0074V15.0174C0 11.7507 2.08941 8.97215 5.00467 7.94511C4.9952 7.78436 4.99078 7.62227 4.9916 7.45897C5.01219 3.31895 8.38507 -0.0204951 12.5251 9.47022e-05L22.5201 0.049845C26.66 0.0704598 29.9996 3.44331 29.9789 7.58336ZM9.98915 7.52107H24.9814C24.9681 6.15822 23.8627 5.05412 22.4951 5.04732L12.5002 4.99757C11.1202 4.9907 9.99592 6.10385 9.98905 7.48386L9.98915 7.52107ZM27.9984 12.5711L17.4529 12.5186H7.49629C6.11627 12.5186 4.99752 13.6373 4.99752 15.0174V35.0074C4.99752 36.3862 6.11437 37.5044 7.49279 37.5062H27.4899C28.8682 37.5044 29.9851 36.3862 29.9851 35.0074V15.0174C29.9851 13.8128 29.1328 12.8073 27.9984 12.5711ZM9.99505 42.5037C9.99505 43.8838 11.1138 45.0025 12.4938 45.0025H22.4889C23.8689 45.0025 24.9876 43.8838 24.9876 42.5037H9.99505Z" fill="black"/>
</svg>
